<?xml version="1.0" encoding="UTF-8" standalone="no"?>
<!DOCTYPE svg PUBLIC "-//W3C//DTD SVG 1.1//EN" "http://www.w3.org/Graphics/SVG/1.1/DTD/svg11.dtd">
<svg width="100%" height="100%" viewBox="0 0 36 32" version="1.1" xmlns="http://www.w3.org/2000/svg" xmlns:xlink="http://www.w3.org/1999/xlink" xml:space="preserve" xmlns:serif="http://www.serif.com/" style="fill-rule:evenodd;clip-rule:evenodd;stroke-linejoin:round;stroke-miterlimit:2;">
    <g transform="matrix(1,0,0,1,-69,-71)">
        <g transform="matrix(1,0,0,1,339,0)">
            <g id="favicon" transform="matrix(1,0,0,1,-411.608,16.9443)">
                <g transform="matrix(0.163366,0,0,0.163366,-290.825,-106.595)">
                    <ellipse cx="2729.05" cy="1066.99" rx="51.426" ry="37.826" style="fill:rgb(96,66,63);"/>
                </g>
                <g transform="matrix(0.163366,0,0,0.163366,-290.731,-106.38)">
                    <path d="M2741.72,1171.93C2690.98,1171.93 2649.79,1130.74 2649.79,1080C2649.79,1029.26 2690.98,988.067 2741.72,988.067C2792.46,988.067 2833.65,1029.26 2833.65,1080C2833.65,1084.71 2833.3,1089.34 2832.61,1093.86C2839.62,1092.73 2846.62,1091.09 2853.63,1088.89C2856.23,1088.07 2859.07,1088.71 2861.06,1090.57C2863.05,1092.43 2863.89,1095.22 2863.24,1097.86C2851.99,1139.89 2802.2,1171.68 2742.42,1171.93L2741.72,1171.93ZM2704.59,1050.91C2710.62,1050.91 2715.51,1057.52 2715.51,1065.67C2715.51,1073.82 2710.62,1080.44 2704.59,1080.44C2698.57,1080.44 2693.67,1073.82 2693.67,1065.67C2693.67,1057.52 2698.57,1050.91 2704.59,1050.91ZM2746.82,1050.91C2752.85,1050.91 2757.74,1057.52 2757.74,1065.67C2757.74,1073.82 2752.85,1080.44 2746.82,1080.44C2740.8,1080.44 2735.91,1073.82 2735.91,1065.67C2735.91,1057.52 2740.8,1050.91 2746.82,1050.91Z" style="fill:rgb(255,101,83);"/>
                </g>
            </g>
        </g>
    </g>
</svg>
